<svg width="32" height="32" viewBox="0 0 32 32" fill="none" xmlns="http://www.w3.org/2000/svg">
<g id="icon/image/color_lens_24px">
<path id="icon/image/color_lens_24px_2" fill-rule="evenodd" clip-rule="evenodd" d="M2.66675 16.0003C2.66675 23.347 8.65341 29.3337 16.0001 29.3337C17.8401 29.3337 19.3334 27.8403 19.3334 26.0003C19.3334 25.187 19.0267 24.4003 18.4801 23.7737C18.3734 23.6403 18.3067 23.4937 18.3067 23.3337C18.3067 22.9603 18.6001 22.667 18.9734 22.667H21.3334C25.7467 22.667 29.3334 19.0803 29.3334 14.667C29.3334 8.05366 23.3467 2.66699 16.0001 2.66699C8.65341 2.66699 2.66675 8.65366 2.66675 16.0003ZM5.33341 16.0003C5.33341 10.1203 10.1201 5.33366 16.0001 5.33366C21.8801 5.33366 26.6667 9.52033 26.6667 14.667C26.6667 17.6137 24.2801 20.0003 21.3334 20.0003H18.9734C17.1334 20.0003 15.6401 21.4937 15.6401 23.3337C15.6401 24.1337 15.9334 24.9203 16.4801 25.5337C16.5601 25.627 16.6667 25.787 16.6667 26.0003C16.6667 26.3737 16.3734 26.667 16.0001 26.667C10.1201 26.667 5.33341 21.8803 5.33341 16.0003ZM8.66675 13.3337C7.56218 13.3337 6.66675 14.2291 6.66675 15.3337C6.66675 16.4382 7.56218 17.3337 8.66675 17.3337C9.77132 17.3337 10.6667 16.4382 10.6667 15.3337C10.6667 14.2291 9.77132 13.3337 8.66675 13.3337ZM10.6667 10.0003C10.6667 8.89576 11.5622 8.00033 12.6667 8.00033C13.7713 8.00033 14.6667 8.89576 14.6667 10.0003C14.6667 11.1049 13.7713 12.0003 12.6667 12.0003C11.5622 12.0003 10.6667 11.1049 10.6667 10.0003ZM19.3334 8.00033C18.2288 8.00033 17.3334 8.89576 17.3334 10.0003C17.3334 11.1049 18.2288 12.0003 19.3334 12.0003C20.438 12.0003 21.3334 11.1049 21.3334 10.0003C21.3334 8.89576 20.438 8.00033 19.3334 8.00033ZM21.3334 15.3337C21.3334 14.2291 22.2288 13.3337 23.3334 13.3337C24.438 13.3337 25.3334 14.2291 25.3334 15.3337C25.3334 16.4382 24.438 17.3337 23.3334 17.3337C22.2288 17.3337 21.3334 16.4382 21.3334 15.3337Z" fill="black"/>
</g>
</svg>
