<svg width="32" height="32" viewBox="0 0 32 32" fill="none" xmlns="http://www.w3.org/2000/svg">
<g id="icon/image/monochrome_photos_24px">
<path id="icon/image/monochrome_photos_24px_2" fill-rule="evenodd" clip-rule="evenodd" d="M22.4 6.66667H26.6667C28.1333 6.66667 29.3333 7.86667 29.3333 9.33333V25.3333C29.3333 26.8 28.1333 28 26.6667 28H5.33332C3.86666 28 2.66666 26.8 2.66666 25.3333V9.33333C2.66666 7.86667 3.86666 6.66667 5.33332 6.66667H9.59999L12 4H20L22.4 6.66667ZM16 25.3333H26.6667V9.33333H16V10.6667C12.2667 10.6667 9.33332 13.6 9.33332 17.3333C9.33332 21.0667 12.2667 24 16 24V25.3333ZM16 13.0667C18.4 13.0667 20.2667 14.9333 20.2667 17.3333C20.2667 19.7333 18.4 21.6 16 21.6V24C19.7333 24 22.6667 21.0667 22.6667 17.3333C22.6667 13.6 19.7333 10.6667 16 10.6667V13.0666C13.6 13.0666 11.7333 14.9333 11.7333 17.3333C11.7333 19.7333 13.6 21.5999 16 21.5999V13.0667ZM16 13.0667C16 13.0667 16 13.0667 16 13.0667V13.0666C16 13.0666 16 13.0666 16 13.0666V13.0667Z" fill="black"/>
</g>
</svg>
