<svg width="32" height="32" viewBox="0 0 32 32" fill="none" xmlns="http://www.w3.org/2000/svg">
<g id="icon/editor/bubble_chart_24px">
<path id="icon/editor/bubble_chart_24px_2" fill-rule="evenodd" clip-rule="evenodd" d="M21.3333 4C17.2933 4 13.9999 7.29333 13.9999 11.3333C13.9999 15.3733 17.2933 18.6667 21.3333 18.6667C25.3733 18.6667 28.6666 15.3733 28.6666 11.3333C28.6666 7.29333 25.3733 4 21.3333 4ZM3.33325 18.6667C3.33325 15.72 5.71992 13.3333 8.66659 13.3333C11.6133 13.3333 13.9999 15.72 13.9999 18.6667C13.9999 21.6133 11.6133 24 8.66659 24C5.71992 24 3.33325 21.6133 3.33325 18.6667ZM5.99992 18.6667C5.99992 20.1333 7.19992 21.3333 8.66658 21.3333C10.1333 21.3333 11.3333 20.1333 11.3333 18.6667C11.3333 17.2 10.1333 16 8.66658 16C7.19992 16 5.99992 17.2 5.99992 18.6667ZM19.3466 20C17.1466 20 15.3466 21.8 15.3466 24C15.3466 26.2 17.1466 28 19.3466 28C21.5466 28 23.3466 26.2 23.3466 24C23.3466 21.8 21.5466 20 19.3466 20ZM18.0133 24C18.0133 24.7333 18.6133 25.3333 19.3466 25.3333C20.0799 25.3333 20.6799 24.7333 20.6799 24C20.6799 23.2667 20.0799 22.6667 19.3466 22.6667C18.6133 22.6667 18.0133 23.2667 18.0133 24ZM16.6666 11.3333C16.6666 13.9067 18.7599 16 21.3333 16C23.9066 16 25.9999 13.9067 25.9999 11.3333C25.9999 8.76 23.9066 6.66667 21.3333 6.66667C18.7599 6.66667 16.6666 8.76 16.6666 11.3333Z" fill="black"/>
</g>
</svg>
